<?xml version="1.0" encoding="UTF-8" standalone="no"?>
<!-- Created with Inkscape (http://www.inkscape.org/) -->

<svg
   width="622mm"
   height="317mm"
   viewBox="0 0 622 317"
   version="1.1"
   id="svg5797"
   inkscape:version="1.2.2 (732a01da63, 2022-12-09)"
   sodipodi:docname="logo-1.svg"
   xmlns:inkscape="http://www.inkscape.org/namespaces/inkscape"
   xmlns:sodipodi="http://sodipodi.sourceforge.net/DTD/sodipodi-0.dtd"
   xmlns="http://www.w3.org/2000/svg"
   xmlns:svg="http://www.w3.org/2000/svg">
  <sodipodi:namedview
     id="namedview5799"
     pagecolor="#ffffff"
     bordercolor="#000000"
     borderopacity="0.25"
     inkscape:showpageshadow="2"
     inkscape:pageopacity="0.0"
     inkscape:pagecheckerboard="0"
     inkscape:deskcolor="#d1d1d1"
     inkscape:document-units="px"
     showgrid="false"
     inkscape:zoom="0.37282197"
     inkscape:cx="1097.0384"
     inkscape:cy="337.96292"
     inkscape:window-width="1920"
     inkscape:window-height="1017"
     inkscape:window-x="1358"
     inkscape:window-y="-8"
     inkscape:window-maximized="1"
     inkscape:current-layer="layer1" />
  <defs
     id="defs5794" />
  <g
     inkscape:label="Camada 1"
     inkscape:groupmode="layer"
     id="layer1">
    <path
       id="text4407"
       style="font-style:normal;font-variant:normal;font-weight:bold;font-stretch:normal;font-size:72.6708px;font-family:Arial;-inkscape-font-specification:'Arial Bold';text-align:center;text-anchor:middle;fill:#1a1a1a;fill-opacity:1;stroke-width:36.6188"
       d="M 55.425392,4.1634087 V 36.904916 H 112.85621 V 160.65316 l 33.2241,25.07574 5.85459,4.41833 V 36.904916 h 57.2962 V 4.1634087 Z"
       inkscape:export-filename="logo-header.png"
       inkscape:export-xdpi="96"
       inkscape:export-ydpi="96" />
    <path
       id="text4407-3"
       style="font-style:normal;font-variant:normal;font-weight:bold;font-stretch:normal;font-size:72.6708px;font-family:Arial;-inkscape-font-specification:'Arial Bold';text-align:center;text-anchor:middle;fill:#1a1a1a;fill-opacity:1;stroke-width:36.6188"
       d="M 335.51921,7.7761445 V 111.38614 c 0,15.31454 -0.57085,26.27113 -1.71506,32.87224 -1.14418,6.60108 -4.53423,12.19099 -10.1672,16.76779 -5.63292,4.48876 -13.99356,6.73326 -25.0834,6.73326 -10.91384,0 -19.53854,-2.37656 -25.87558,-7.12935 -6.24904,-4.84083 -10.20994,-11.2229 -11.88224,-19.14424 -0.96814,-4.9288 -1.45354,-15.71064 -1.45354,-32.34541 V 8.720181 l -39.07868,41.73778 v 57.100099 c 0,21.65159 1.27756,38.02145 3.82999,49.11127 1.76029,7.48127 5.41248,14.65362 10.95742,21.51878 5.54493,6.77713 13.07064,12.3224 22.57623,16.6351 9.5936,4.2247 23.63151,6.3372 42.11464,6.3372 15.31453,0 27.72536,-1.9358 37.23095,-5.80845 9.50561,-3.96066 17.07408,-9.24189 22.707,-15.843 5.72097,-6.60107 9.63722,-14.69765 11.74958,-24.29127 2.11236,-9.59357 3.16857,-26.00804 3.16857,-49.24392 V 44.364979 Z" />
    <path
       id="text4407-3-3"
       style="font-style:normal;font-variant:normal;font-weight:bold;font-stretch:normal;font-size:72.6708px;font-family:Arial;-inkscape-font-specification:'Arial Bold';text-align:center;text-anchor:middle;fill:#ffcc00;fill-opacity:1;stroke-width:36.6188"
       d="M 220.23663,4.0641049 V 45.719204 L 259.23838,4.0641049 Z m 115.30952,0 39.02487,36.5388231 V 4.0641049 Z" />
    <path
       id="text4407-0"
       style="font-style:normal;font-variant:normal;font-weight:bold;font-stretch:normal;font-size:72.6708px;font-family:Arial;-inkscape-font-specification:'Arial Bold';text-align:center;text-anchor:middle;fill:#1a1a1a;fill-opacity:1;stroke-width:36.6188"
       d="M 386.24172,4.3153222 V 157.4884 l 39.07867,36.58881 v -69.22458 h 25.4795 c 17.69099,0 31.20079,-0.9242 40.53036,-2.7725 6.86513,-1.49625 13.59866,-4.53296 20.19977,-9.10971 6.68914,-4.66479 12.18972,-11.04686 16.50247,-19.144225 4.31273,-8.097371 6.46985,-18.087004 6.46985,-29.96901 0,-15.40257 -3.74151,-27.94352 -11.22274,-37.625131 C 515.79833,16.462413 506.51349,10.124981 495.42366,7.2205057 488.20645,5.284175 472.71618,4.3153222 448.9522,4.3153222 Z M 425.32039,37.05683 h 18.87891 c 14.08238,0 23.45458,0.440709 28.11937,1.32086 6.33705,1.144209 11.57552,4.004224 15.71225,8.580974 4.13666,4.576751 6.20452,10.386109 6.20452,17.42727 0,5.720951 -1.49701,10.73811 -4.48951,15.050822 -2.90447,4.312725 -6.95275,7.481449 -12.14565,9.505798 -5.19285,2.024323 -15.49122,3.035928 -30.89379,3.035928 h -21.3861 z" />
    <path
       id="text4407-0-4-9"
       style="font-style:normal;font-variant:normal;font-weight:bold;font-stretch:normal;font-size:72.6708px;font-family:Arial;-inkscape-font-specification:'Arial Bold';text-align:center;text-anchor:middle;fill:#fd3b08;fill-opacity:1;stroke-width:36.6188"
       d="m 386.18186,161.48037 v 36.47922 h 38.96141 z" />
    <path
       id="text4407-0-9"
       style="font-style:normal;font-variant:normal;font-weight:bold;font-stretch:normal;font-size:72.6708px;font-family:Arial;-inkscape-font-specification:'Arial Bold';text-align:center;text-anchor:middle;fill:#1a1a1a;fill-opacity:1;stroke-width:36.6188"
       d="m 544.07031,90.623281 v 59.623869 c 0,0 -1.50581,25.13072 12.60279,39.2841 14.10862,14.1534 61.01692,7.23484 61.01692,7.23484 l -0.23329,-29.24855 -16.57032,-0.958 c 0,0 -8.58805,-0.10309 -12.99115,-4.22629 -4.40308,-4.12324 -5.25901,-13.74436 -5.25901,-13.74436 L 583.103,90.623134 Z"
       sodipodi:nodetypes="cczccczccc" />
    <path
       id="text4407-0-9-9"
       style="font-style:normal;font-variant:normal;font-weight:bold;font-stretch:normal;font-size:72.6708px;font-family:Arial;-inkscape-font-specification:'Arial Bold';text-align:center;text-anchor:middle;fill:#fd3b08;fill-opacity:1;stroke-width:36.6188"
       d="m 544.4855,59.407796 v 28.832679 h 38.79993 l 0.23253,-28.832679 z" />
    <g
       id="g5633"
       transform="matrix(3.7206342,0,0,3.7206342,-95.03286,-513.39807)">
      <path
         sodipodi:type="star"
         style="fill:#eadb0f;fill-opacity:1;stroke-width:0.430001"
         id="path234-0"
         inkscape:flatsided="false"
         sodipodi:sides="3"
         sodipodi:cx="67.774193"
         sodipodi:cy="83.032265"
         sodipodi:r1="53.01366"
         sodipodi:r2="26.50683"
         sodipodi:arg1="0.73331261"
         sodipodi:arg2="1.7805102"
         inkscape:rounded="0"
         inkscape:randomized="0"
         d="M 107.16129,118.51613 62.256,108.95834 17.350713,99.400555 48.080646,65.290329 78.810577,31.180106 92.985933,74.848121 Z"
         inkscape:transform-center-x="-6.0387542"
         inkscape:transform-center-y="-0.028691068"
         transform="matrix(0.09596752,-0.58173133,-0.4468901,-0.12492403,77.972281,245.34647)"
         inkscape:export-filename="favicon.png"
         inkscape:export-xdpi="96"
         inkscape:export-ydpi="96" />
      <path
         sodipodi:type="star"
         style="fill:#ffcc00;fill-opacity:1;stroke-width:0.430001"
         id="path234-2-8"
         inkscape:flatsided="false"
         sodipodi:sides="3"
         sodipodi:cx="67.774193"
         sodipodi:cy="83.032265"
         sodipodi:r1="53.01366"
         sodipodi:r2="26.50683"
         sodipodi:arg1="0.73331261"
         sodipodi:arg2="1.7805102"
         inkscape:rounded="0"
         inkscape:randomized="0"
         d="M 107.16129,118.51613 62.256,108.95834 17.350713,99.400555 48.080646,65.290329 78.810577,31.180106 92.985933,74.848121 Z"
         inkscape:transform-center-x="-6.0387542"
         inkscape:transform-center-y="-0.028691068"
         transform="matrix(0.09596752,-0.58173133,-0.4468901,-0.12492403,80.11876,245.34647)" />
      <path
         sodipodi:type="star"
         style="fill:#c32f08;fill-opacity:1;stroke-width:0.430001"
         id="path234-7-8"
         inkscape:flatsided="false"
         sodipodi:sides="3"
         sodipodi:cx="67.774193"
         sodipodi:cy="83.032265"
         sodipodi:r1="53.01366"
         sodipodi:r2="26.50683"
         sodipodi:arg1="0.73331261"
         sodipodi:arg2="1.7805102"
         inkscape:rounded="0"
         inkscape:randomized="0"
         d="M 107.16129,118.51613 62.256,108.95834 17.350713,99.400555 48.080646,65.290329 78.810577,31.180106 92.985933,74.848121 Z"
         inkscape:transform-center-x="-3.7064322"
         inkscape:transform-center-y="-0.017604208"
         transform="matrix(0.05890239,-0.35705171,-0.27428963,-0.07667515,53.268802,226.27776)" />
      <path
         sodipodi:type="star"
         style="fill:#fd3b08;fill-opacity:1;stroke-width:0.430001"
         id="path234-2-6-4"
         inkscape:flatsided="false"
         sodipodi:sides="3"
         sodipodi:cx="67.774193"
         sodipodi:cy="83.032265"
         sodipodi:r1="53.01366"
         sodipodi:r2="26.50683"
         sodipodi:arg1="0.73331261"
         sodipodi:arg2="1.7805102"
         inkscape:rounded="0"
         inkscape:randomized="0"
         d="M 107.16129,118.51613 62.256,108.95834 17.350713,99.400555 48.080646,65.290329 78.810577,31.180106 92.985933,74.848121 Z"
         inkscape:transform-center-x="-3.7064311"
         inkscape:transform-center-y="-0.017604208"
         transform="matrix(0.05890239,-0.35705171,-0.27428963,-0.07667515,55.265645,226.27776)" />
    </g>
    <text
       xml:space="preserve"
       style="font-style:normal;font-variant:normal;font-weight:bold;font-stretch:normal;font-size:21.6905px;font-family:Arial;-inkscape-font-specification:'Arial Bold';text-align:center;text-anchor:middle;fill:#1a1a1a;fill-opacity:1;stroke-width:2.93762"
       x="402.92407"
       y="226.62201"
       id="text5638"><tspan
         sodipodi:role="line"
         id="tspan5636"
         style="fill:#1a1a1a;stroke-width:2.93762"
         x="402.92407"
         y="226.62201">TRANSPORTE URBANO DE PIRACICABA</tspan></text>
  </g>
</svg>
